<?xml version="1.0" encoding="UTF-8"?>
<!DOCTYPE svg PUBLIC "-//W3C//DTD SVG 1.1//EN" "http://www.w3.org/Graphics/SVG/1.1/DTD/svg11.dtd">
<!-- Creator: CorelDRAW -->
<svg xmlns="http://www.w3.org/2000/svg" xml:space="preserve" width="1.70666in" height="1.70666in" version="1.1" style="shape-rendering:geometricPrecision; text-rendering:geometricPrecision; image-rendering:optimizeQuality; fill-rule:evenodd; clip-rule:evenodd"
viewBox="0 0 1707 1707"
 xmlns:xlink="http://www.w3.org/1999/xlink">
 <defs>
  <style type="text/css">
   <![CDATA[
    .fil0 {fill:#000002}
   ]]>
  </style>
 </defs>
 <g id="Layer_x0020_1">
  <metadata id="CorelCorpID_0Corel-Layer"/>
  <path class="fil0" d="M661 764l0 -162c0,-29 46,-29 46,0l0 162 293 0 0 -162c0,-29 45,-29 45,0l0 162 96 0 0 -131c0,-69 -63,-125 -143,-131 -58,107 -237,107 -296,0 -76,9 -136,65 -136,131l0 131 95 0zm749 139l-1114 0c-12,0 -22,-10 -22,-23l0 -93c0,-13 10,-23 22,-23l224 0 0 -131c0,-92 79,-167 183,-176l32 -56c-65,-64 -44,-130 -49,-165 -14,-48 -18,-148 65,-205 74,-50 163,-31 211,5 85,63 72,157 51,202 -5,26 18,97 -48,163l32 55c106,6 190,83 190,177l0 131 223 0c13,0 23,10 23,23l0 93c0,13 -10,23 -23,23zm-1091 -46l1069 0 0 -47 -704 0 -365 0 0 47zm834 849l-1062 0c-12,0 -23,-10 -23,-22l0 -149c0,-89 77,-161 177,-171l30 -52c-62,-63 -41,-124 -46,-159 -14,-47 -18,-144 63,-199 71,-48 158,-30 204,5 82,61 69,152 50,196 -5,25 17,93 -47,157l31 52c33,2 64,11 92,27 25,-15 54,-24 85,-27l31 -52c-62,-63 -42,-124 -47,-159 -14,-47 -17,-144 63,-199 72,-48 159,-30 205,5 81,61 69,152 50,196 -6,25 17,93 -47,157l30 52c34,2 66,12 93,27 26,-15 55,-24 85,-27l31 -52c-63,-63 -42,-125 -47,-159 -14,-47 -18,-144 63,-199 72,-48 158,-30 204,5 82,61 70,152 50,196 -5,25 18,93 -46,157l30 52c102,6 183,81 183,171l0 149c0,12 -10,22 -23,22l-462 0zm-619 -199c6,-33 23,-62 47,-86 -16,-6 -33,-10 -51,-12 -56,104 -229,104 -285,1 -74,9 -131,62 -131,125l0 126 91 0 0 -155c0,-30 45,-30 45,0l0 155 281 0c0,-25 -3,-120 2,-150l1 -4zm213 -120c39,74 168,74 206,0l-27 -48c-46,25 -106,25 -152,0l-27 48zm427 125c4,30 1,115 1,149l282 0 0 -155c0,-30 45,-30 45,0l0 155 91 0 0 -126c0,-65 -61,-119 -137,-126 -57,104 -229,104 -286,1 -15,2 -30,6 -44,11 26,26 42,57 48,91zm-597 149l90 0 0 -155c0,-30 46,-30 46,0l0 155 281 0 0 -155c0,-30 45,-30 45,0l0 155 91 0c0,-35 4,-130 -5,-158 -17,-55 -75,-89 -132,-94 -56,104 -229,104 -286,1 -73,9 -130,62 -130,125l0 126zm341 -371c1,0 2,-1 3,-2 44,-32 44,-87 42,-137 -4,-63 -21,-95 -50,-95 -42,0 -64,43 -88,30 -95,-50 -88,64 -88,114 0,93 107,146 181,90zm291 97c39,74 168,74 207,0l-28 -48c-45,25 -105,25 -151,0l-28 48zm171 -97c1,0 2,-1 4,-2 44,-32 44,-87 42,-137 -5,-63 -22,-95 -50,-95 -43,0 -65,43 -89,30 -94,-50 -87,65 -87,114 0,93 107,146 180,90zm-1096 97c39,74 168,74 207,0l-28 -48c-46,25 -105,25 -151,0l-28 48zm171 -97c1,0 2,-1 3,-2 44,-32 44,-87 42,-137 -4,-63 -21,-95 -50,-95 -42,0 -64,43 -88,30 -95,-50 -88,64 -88,114 0,93 107,146 181,90zm-67 -320c-45,0 -94,29 -111,70 22,-15 55,-17 93,-1 31,-21 87,-44 128,-13 -17,-26 -52,-56 -110,-56zm925 0c-45,0 -93,29 -111,70 22,-15 55,-17 93,-1 31,-20 88,-44 128,-13 -16,-26 -52,-56 -110,-56zm-571 -490c40,77 176,77 216,0l-29 -52c-48,27 -110,27 -158,1l-29 51zm179 -100c1,-1 2,-2 3,-3 46,-33 46,-91 44,-143 -5,-66 -22,-99 -53,-99 -50,0 -65,45 -91,31 -99,-52 -92,67 -92,119 0,97 112,152 189,95zm-71 590c-45,0 -93,29 -110,70 21,-15 54,-17 93,-1 31,-21 87,-44 128,-13 -17,-26 -53,-56 -111,-56zm0 -924c-48,0 -99,32 -117,76 29,-21 65,-17 99,-2 33,-23 93,-48 136,-11 -17,-30 -56,-63 -118,-63z"/>
 </g>
</svg>
