<?xml version="1.0" encoding="utf-8"?>
<!-- Generator: Adobe Illustrator 18.1.1, SVG Export Plug-In . SVG Version: 6.00 Build 0)  -->
<svg version="1.1" id="Layer_1" xmlns="http://www.w3.org/2000/svg" xmlns:xlink="http://www.w3.org/1999/xlink" x="0px" y="0px"
	 viewBox="0 0 64 64" enable-background="new 0 0 64 64" xml:space="preserve">
<path d="M31,22h8c0.553,0,1-0.448,1-1v-8c0-0.552-0.447-1-1-1h-8c-0.552,0-1,0.448-1,1v8C30,21.552,30.448,22,31,22z M32,14h6v6h-6
	V14z M20,22h8c0.552,0,1-0.448,1-1v-8c0-0.552-0.448-1-1-1h-8c-0.552,0-1,0.448-1,1v8C19,21.552,19.448,22,20,22z M21,14h6v6h-6V14z
	 M9,22h8c0.552,0,1-0.448,1-1v-8c0-0.552-0.448-1-1-1H9c-0.552,0-1,0.448-1,1v8C8,21.552,8.448,22,9,22z M10,14h6v6h-6V14z M31,34h8
	c0.553,0,1-0.447,1-1v-8c0-0.552-0.447-1-1-1h-8c-0.552,0-1,0.448-1,1v8C30,33.553,30.448,34,31,34z M32,26h6v6h-6V26z M20,34h8
	c0.552,0,1-0.447,1-1v-8c0-0.552-0.448-1-1-1h-8c-0.552,0-1,0.448-1,1v8C19,33.553,19.448,34,20,34z M21,26h6v6h-6V26z M9,34h8
	c0.552,0,1-0.447,1-1v-8c0-0.552-0.448-1-1-1H9c-0.552,0-1,0.448-1,1v8C8,33.553,8.448,34,9,34z M10,26h6v6h-6V26z M55,24h-8
	c-0.553,0-1,0.448-1,1v8c0,0.553,0.447,1,1,1h8c0.553,0,1-0.447,1-1v-8C56,24.448,55.553,24,55,24z M54,32h-6v-6h6V32z M55,36h-8
	c-0.553,0-1,0.447-1,1v8c0,0.553,0.447,1,1,1h8c0.553,0,1-0.447,1-1v-8C56,36.447,55.553,36,55,36z M54,44h-6v-6h6V44z M55,48h-8
	c-0.553,0-1,0.447-1,1v8c0,0.553,0.447,1,1,1h8c0.553,0,1-0.447,1-1v-8C56,48.447,55.553,48,55,48z M54,56h-6v-6h6V56z M39,44h-4
	c-0.553,0-1,0.447-1,1v4c0,0.553,0.447,1,1,1h4c0.553,0,1-0.447,1-1v-4C40,44.447,39.553,44,39,44z M38,48h-2v-2h2V48z M12,44H8
	c-0.552,0-1,0.447-1,1v4c0,0.553,0.448,1,1,1h4c0.552,0,1-0.447,1-1v-4C13,44.447,12.552,44,12,44z M11,48H9v-2h2V48z M25,37v4
	c0,0.553,0.448,1,1,1h4c0.552,0,1-0.447,1-1v-4c0-0.553-0.448-1-1-1h-4C25.448,36,25,36.447,25,37z M27,38h2v2h-2V38z M38,42
	c0.553,0,1-0.447,1-1v-4c0-0.553-0.447-1-1-1h-4c-0.553,0-1,0.447-1,1v4c0,0.553,0.447,1,1,1H38z M35,38h2v2h-2V38z M17,37v4
	c0,0.553,0.448,1,1,1h4c0.552,0,1-0.447,1-1v-4c0-0.553-0.448-1-1-1h-4C17.448,36,17,36.447,17,37z M19,38h2v2h-2V38z M15,41v-4
	c0-0.553-0.448-1-1-1h-4c-0.552,0-1,0.447-1,1v4c0,0.553,0.448,1,1,1h4C14.552,42,15,41.553,15,41z M13,40h-2v-2h2V40z M61,60h-1V17
	c0-0.552-0.447-1-1-1H44V3c0-0.552-0.447-1-1-1H29c-0.552,0-1,0.448-1,1v5h-8V3c0-0.552-0.448-1-1-1H5C4.448,2,4,2.448,4,3v57H3
	c-0.552,0-1,0.447-1,1s0.448,1,1,1h2h38h16h2c0.553,0,1-0.447,1-1S61.553,60,61,60z M58,18v2H44v-2H58z M6,4h12v5
	c0,0.552,0.448,1,1,1h10c0.552,0,1-0.448,1-1V4h12v13v43H32V47c0-0.266-0.105-0.52-0.293-0.707l-2-2C29.52,44.105,29.265,44,29,44
	H18c-0.265,0-0.52,0.105-0.707,0.293l-2,2C15.105,46.48,15,46.734,15,47v13H6V4z M30,60H17V47.414L18.414,46h10.172L30,47.414V60z
	 M44,60V22h14v38H44z"/>
</svg>
