<?xml version="1.0" encoding="UTF-8" standalone="no"?> <svg id="Layer_7" data-name="Layer 7" xmlns="http://www.w3.org/2000/svg" viewBox="0 0 64 64"><title>service, support, customer, 24 hour call center, assistance</title><path d="M34.764,43.916a3.2,3.2,0,0,0-3.706-.862l-2.283,1a2.72,2.72,0,0,1-3.3-.917l-5.453-7.7a2.711,2.711,0,0,1,.7-3.818,3.185,3.185,0,0,0,.773-4.554l-4.066-5.428a3.2,3.2,0,0,0-4.086-.88l-.86.474a8.09,8.09,0,0,0-4.239,7.5c.419,6.762,6.565,14.9,6.823,15.239,5.384,7.134,10.425,10.01,13.706,11.167a9.033,9.033,0,0,0,3,.51,9.588,9.588,0,0,0,4.933-1.391l1.3-.783a3.185,3.185,0,0,0,.79-4.786ZM36.98,51.76l-1.3.782a7.346,7.346,0,0,1-6.236.709c-3.022-1.064-7.691-3.748-12.777-10.489-.061-.079-6.039-7.991-6.421-14.153a6.085,6.085,0,0,1,3.208-5.629l.86-.473a1.171,1.171,0,0,1,.569-.147,1.188,1.188,0,0,1,.951.474L19.9,28.263a1.184,1.184,0,0,1-.288,1.694,4.71,4.71,0,0,0-1.218,6.634l5.452,7.7a4.73,4.73,0,0,0,5.729,1.594l2.283-1a1.194,1.194,0,0,1,1.379.321l4.037,4.772a1.184,1.184,0,0,1-.294,1.781Z"/><path d="M55.361,25.067a20.681,20.681,0,0,0-5.554-10.482h0l0,0a21.071,21.071,0,0,0-3.324-2.751,20.658,20.658,0,0,0-12.032-3.47c-.017,0-.031-.009-.049-.009s-.053.014-.082.016a20.972,20.972,0,0,0-3.476.383,20.667,20.667,0,0,0-13.369,9.083,1,1,0,1,0,1.677,1.088,19.017,19.017,0,0,1,2.052-2.6L22.763,17.7a1,1,0,0,0,1.326-1.5l-1.446-1.28a18.7,18.7,0,0,1,8.593-4.209,19.119,19.119,0,0,1,2.164-.295v4.807a1,1,0,0,0,2,0V10.359A18.691,18.691,0,0,1,45.373,13.5a19.186,19.186,0,0,1,2.147,1.689l-1.687,1.4a1,1,0,0,0,1.28,1.537L48.942,16.6A18.683,18.683,0,0,1,53.4,25.462c.048.236.074.472.112.708H48.665a1,1,0,0,0,0,2h5.064a18.915,18.915,0,0,1-2.807,10.9L49.3,37.733a1,1,0,0,0-1.274,1.543l1.751,1.446a18.685,18.685,0,0,1-5.055,4.528l.881-2.51a1,1,0,1,0-1.886-.662l-1.66,4.727a1,1,0,0,0,.7,1.3l4.926,1.215a.945.945,0,0,0,.24.03,1,1,0,0,0,.238-1.971l-2.2-.541A20.924,20.924,0,0,0,55.361,25.067Z"/><path d="M40.273,26.17H34.4a1,1,0,0,0-.872.511l-5.367,9.578a1,1,0,0,0,1.745.978l5.08-9.067h5.287a1,1,0,1,0,0-2Z"/></svg>