<?xml version="1.0" encoding="utf-8"?>
<!-- Generator: Adobe Illustrator 28.1.0, SVG Export Plug-In . SVG Version: 6.00 Build 0)  -->
<svg version="1.1" id="Layer_1" xmlns="http://www.w3.org/2000/svg" xmlns:xlink="http://www.w3.org/1999/xlink" x="0px" y="0px"
	width="75px" height="75px" stroke="#1e293bca" fill="#1e293bca" viewBox="0 0 100 100" style="enable-background:new 0 0 100 100;" xml:space="preserve">
<path d="M70,12H30c-9.9,0-18,8.1-18,18v40c0,9.9,8.1,18,18,18h40c9.9,0,18-8.1,18-18V30C88,20.1,79.9,12,70,12z M84,70
	c0,3.9-1.6,7.4-4.1,9.9c-2.5,2.5-6,4.1-9.9,4.1H30c-3.9,0-7.4-1.6-9.9-4.1c-2.5-2.5-4.1-6-4.1-9.9V30c0-3.9,1.6-7.4,4.1-9.9
	c2.5-2.5,6-4.1,9.9-4.1h40c3.9,0,7.4,1.6,9.9,4.1c2.5,2.5,4.1,6,4.1,9.9V70z"/>
<path d="M60.5,40.6L46.9,55.2l-7.5-6.7c-0.8-0.7-2.1-0.7-2.8,0.2s-0.7,2.1,0.2,2.8l9,8c0.8,0.7,2,0.7,2.8-0.1l15-16
	c0.8-0.8,0.7-2.1-0.1-2.8C62.6,39.8,61.3,39.8,60.5,40.6z"/>
</svg>
