<?xml version="1.0" encoding="UTF-8"?>
<!DOCTYPE svg PUBLIC "-//W3C//DTD SVG 1.1//EN" "http://www.w3.org/Graphics/SVG/1.1/DTD/svg11.dtd">
<!-- Creator: CorelDRAW -->
<svg xmlns="http://www.w3.org/2000/svg" xml:space="preserve" width="512px" height="512px" version="1.1" style="shape-rendering:geometricPrecision; text-rendering:geometricPrecision; image-rendering:optimizeQuality; fill-rule:evenodd; clip-rule:evenodd"
viewBox="0 0 512 512"
 xmlns:xlink="http://www.w3.org/1999/xlink">
 <defs>
  <style type="text/css">
   <![CDATA[
    .fil0 {fill:black}
   ]]>
  </style>
 </defs>
 <g id="Layer_x0020_1">
  <metadata id="CorelCorpID_0Corel-Layer"/>
  <g id="_475092616">
   <g>
    <path class="fil0" d="M75 464c-4,0 -7,-3 -7,-7l0 -411c0,-26 20,-46 45,-46l324 0c4,0 7,3 7,7l0 401c0,4 -3,7 -7,7 -4,0 -7,-3 -7,-7l0 -394 -317 0c-17,0 -31,14 -31,32l0 411c0,4 -3,7 -7,7z"/>
   </g>
   <g>
    <path class="fil0" d="M437 512l-314 0c-30,0 -55,-25 -55,-55 0,-15 6,-29 16,-40 10,-10 24,-16 39,-16l314 0c4,0 7,3 7,7l0 97c0,4 -3,7 -7,7zm-314 -97c-23,0 -41,18 -41,42 0,23 18,41 41,41l307 0 0 -83 -307 0z"/>
   </g>
   <g>
    <path class="fil0" d="M437 464l-315 0c-4,0 -7,-3 -7,-7 0,-4 3,-7 7,-7l315 0c4,0 7,3 7,7 0,4 -3,7 -7,7z"/>
   </g>
   <g>
    <g>
     <g>
      <path class="fil0" d="M394 282l-90 0c-4,0 -7,-3 -7,-7 0,-4 3,-7 7,-7l90 0c4,0 7,3 7,7 0,4 -3,7 -7,7z"/>
     </g>
     <g>
      <path class="fil0" d="M304 372c-2,0 -4,-1 -5,-2 -3,-3 -3,-7 0,-10l90 -90c3,-3 7,-3 10,0 3,3 3,7 0,10l-90 90c-1,1 -3,2 -5,2z"/>
     </g>
     <g>
      <path class="fil0" d="M394 372l-90 0c-4,0 -7,-3 -7,-7 0,-4 3,-7 7,-7l90 0c4,0 7,3 7,7 0,4 -3,7 -7,7z"/>
     </g>
    </g>
    <g>
     <g>
      <path class="fil0" d="M163 372c-4,0 -7,-3 -7,-7 0,-14 5,-27 15,-37 10,-10 23,-15 37,-15 4,0 7,3 7,7 0,4 -3,7 -7,7 -21,0 -38,17 -38,38 0,4 -3,7 -7,7z"/>
     </g>
     <g>
      <path class="fil0" d="M163 372c-4,0 -7,-3 -7,-7 0,-21 -17,-38 -38,-38 -4,0 -7,-3 -7,-7 0,-4 3,-7 7,-7 14,0 27,5 37,15 10,10 15,23 15,37 0,4 -3,7 -7,7z"/>
     </g>
     <g>
      <path class="fil0" d="M208 327c-14,0 -27,-5 -37,-15 -10,-10 -15,-23 -15,-37 0,-4 3,-7 7,-7 4,0 7,3 7,7 0,21 17,38 38,38 4,0 7,3 7,7 0,4 -3,7 -7,7z"/>
     </g>
     <g>
      <path class="fil0" d="M118 327c-4,0 -7,-3 -7,-7 0,-4 3,-7 7,-7 21,0 38,-17 38,-38 0,-4 3,-7 7,-7 4,0 7,3 7,7 0,14 -5,27 -15,37 -10,10 -23,15 -37,15z"/>
     </g>
    </g>
    <g>
     <g>
      <path class="fil0" d="M195 147c-3,0 -5,-2 -6,-4l-36 -89c-2,-4 0,-8 3,-9 4,-2 8,0 10,3l36 89c1,4 -1,8 -4,10 -1,0 -2,0 -3,0z"/>
     </g>
     <g>
      <path class="fil0" d="M122 148c-1,0 -2,0 -3,0 -3,-2 -5,-6 -3,-10l37 -90c1,-3 5,-5 9,-3 3,1 5,5 3,9l-37 90c-1,2 -3,4 -6,4z"/>
     </g>
     <g>
      <path class="fil0" d="M182 115l-46 0c-4,0 -7,-3 -7,-7 0,-4 3,-7 7,-7l46 0c4,0 7,3 7,7 0,4 -3,7 -7,7z"/>
     </g>
    </g>
    <g>
     <g>
      <path class="fil0" d="M344 148c-4,0 -7,-3 -7,-7 0,-28 24,-52 52,-52 4,0 7,3 7,7 0,4 -3,7 -7,7 -21,0 -38,17 -38,38 0,4 -3,7 -7,7z"/>
     </g>
     <g>
      <path class="fil0" d="M344 148c-4,0 -7,-3 -7,-7 0,-21 -17,-38 -38,-38 -4,0 -7,-3 -7,-7 0,-4 3,-7 7,-7 14,0 27,5 37,15 10,10 15,23 15,37 0,4 -3,7 -7,7z"/>
     </g>
     <g>
      <path class="fil0" d="M389 103c-28,0 -52,-24 -52,-52 0,-4 3,-7 7,-7 4,0 7,3 7,7 0,21 17,38 38,38 4,0 7,3 7,7 0,4 -3,7 -7,7z"/>
     </g>
     <g>
      <path class="fil0" d="M299 103c-4,0 -7,-3 -7,-7 0,-4 3,-7 7,-7 21,0 38,-17 38,-38 0,-4 3,-7 7,-7 4,0 7,3 7,7 0,14 -5,27 -15,37 -10,10 -23,15 -37,15z"/>
     </g>
    </g>
   </g>
   <g>
    <path class="fil0" d="M256 250c-23,0 -42,-19 -42,-42 0,-24 18,-42 42,-42 24,0 42,18 42,42 0,23 -19,42 -42,42zm0 -70c-16,0 -28,12 -28,28 0,15 13,28 28,28 15,0 28,-13 28,-28 0,-16 -12,-28 -28,-28z"/>
   </g>
  </g>
 </g>
</svg>
