<?xml version="1.0" encoding="UTF-8"?>
<!DOCTYPE svg PUBLIC "-//W3C//DTD SVG 1.1//EN" "http://www.w3.org/Graphics/SVG/1.1/DTD/svg11.dtd">
<!-- Creator: CorelDRAW -->
<svg xmlns="http://www.w3.org/2000/svg" xml:space="preserve" width="512px" height="512px" version="1.1" style="shape-rendering:geometricPrecision; text-rendering:geometricPrecision; image-rendering:optimizeQuality; fill-rule:evenodd; clip-rule:evenodd"
viewBox="0 0 512 512"
 xmlns:xlink="http://www.w3.org/1999/xlink">
 <defs>
  <style type="text/css">
   <![CDATA[
    .fil0 {fill:black}
   ]]>
  </style>
 </defs>
 <g id="Layer_x0020_1">
  <metadata id="CorelCorpID_0Corel-Layer"/>
  <g id="_475109200">
   <g>
    <path class="fil0" d="M449 402l-421 0c-16,0 -28,-12 -28,-28l0 -284c0,-16 12,-28 28,-28l264 0c4,0 7,3 7,7 0,4 -3,7 -7,7l-264 0c-8,0 -14,6 -14,14l0 284c0,8 6,14 14,14l421 0c8,0 14,-6 14,-14l0 -186c0,-4 3,-7 7,-7 4,0 7,3 7,7l0 186c0,16 -12,28 -28,28z"/>
   </g>
   <g>
    <path class="fil0" d="M293 485c-3,0 -6,-3 -7,-6l-12 -83c0,-4 2,-7 6,-8 4,0 7,2 8,6l12 83c1,4 -2,7 -6,8 0,0 -1,0 -1,0zm-109 0c0,0 -1,0 -1,0 -4,-1 -6,-4 -6,-8l12 -83c1,-4 4,-7 8,-6 4,1 7,4 6,8l-12 83c-1,3 -4,6 -7,6z"/>
   </g>
   <g>
    <path class="fil0" d="M341 485l-205 0c-4,0 -7,-3 -7,-7 0,-4 3,-7 7,-7l205 0c4,0 7,3 7,7 0,4 -3,7 -7,7z"/>
   </g>
   <g>
    <path class="fil0" d="M470 349l-463 0c-4,0 -7,-3 -7,-7 0,-4 3,-7 7,-7l463 0c4,0 7,3 7,7 0,4 -3,7 -7,7z"/>
   </g>
   <g>
    <path class="fil0" d="M245 349c-4,0 -7,-3 -7,-7l0 -53c0,-15 -14,-27 -31,-27l-44 0c-4,0 -7,-3 -7,-7 0,-4 3,-7 7,-7l44 0c25,0 45,18 45,41l0 53c0,4 -3,7 -7,7zm-207 0c-4,0 -7,-3 -7,-7l0 -53c0,-23 21,-41 46,-41l44 0c4,0 7,3 7,7 0,4 -3,7 -7,7l-44 0c-17,0 -32,12 -32,27l0 53c0,4 -3,7 -7,7z"/>
   </g>
   <g>
    <path class="fil0" d="M146 292l-8 0c-13,0 -24,-10 -24,-23l0 -38c0,-4 3,-7 7,-7 4,0 7,3 7,7l0 38c0,5 5,9 10,9l8 0c5,0 10,-4 10,-9l0 -38c0,-4 3,-7 7,-7 4,0 7,3 7,7l0 38c0,13 -11,23 -24,23z"/>
   </g>
   <g>
    <path class="fil0" d="M155 239l-27 0c-27,0 -49,-22 -49,-50l0 -41c0,-27 22,-49 49,-49l27 0c28,0 50,22 50,49l0 41c0,28 -22,50 -50,50zm-27 -126c-19,0 -35,16 -35,35l0 41c0,20 16,36 35,36l27 0c20,0 36,-16 36,-36l0 -41c0,-19 -16,-35 -36,-35l-27 0z"/>
   </g>
   <g>
    <path class="fil0" d="M198 155l-33 0c-2,0 -3,-1 -5,-2l-5 -4 -4 4c-1,1 -3,2 -5,2l-60 0c-4,0 -7,-3 -7,-7 0,-4 3,-7 7,-7l57 0 7 -7c3,-2 7,-3 10,0l8 7 30 0c4,0 7,3 7,7 0,4 -3,7 -7,7z"/>
   </g>
   <g>
    <path class="fil0" d="M333 241c-1,0 -2,0 -3,-1 -3,-1 -4,-3 -4,-6l-1 -39 -16 0c-14,0 -24,-11 -24,-24l0 -120c0,-14 10,-24 24,-24l179 0c13,0 24,11 24,24l0 120c0,13 -11,24 -24,24l-83 0 -68 45c-1,1 -3,1 -4,1zm-24 -200c-6,0 -10,4 -10,10l0 120c0,5 4,10 10,10l23 0c4,0 7,3 7,7l1 33 59 -39c1,-1 3,-1 4,-1l85 0c5,0 10,-5 10,-10l0 -120c0,-6 -5,-10 -10,-10l-179 0z"/>
   </g>
   <g>
    <path class="fil0" d="M462 93l-128 0c-4,0 -7,-3 -7,-7 0,-4 3,-7 7,-7l128 0c4,0 7,3 7,7 0,4 -3,7 -7,7z"/>
   </g>
   <g>
    <path class="fil0" d="M462 142l-128 0c-4,0 -7,-3 -7,-7 0,-4 3,-7 7,-7l128 0c4,0 7,3 7,7 0,4 -3,7 -7,7z"/>
   </g>
  </g>
 </g>
</svg>
