<?xml version="1.0" encoding="UTF-8" standalone="no"?> <svg width="512" height="512" viewBox="0 0 512 512" fill="none" xmlns="http://www.w3.org/2000/svg">
<path d="M488 32H55.9999C53.8781 32 51.8433 32.8429 50.343 34.3431C48.8427 35.8434 47.9999 37.8783 47.9999 40V224H31.9999C30.5518 224 29.131 224.393 27.8888 225.137C26.6466 225.881 25.6297 226.949 24.9465 228.225C24.2632 229.502 23.9394 230.94 24.0094 232.387C24.0793 233.833 24.5406 235.233 25.3439 236.438L38.3849 256L25.3439 275.562C24.5406 276.767 24.0793 278.167 24.0094 279.613C23.9394 281.06 24.2632 282.498 24.9465 283.775C25.6297 285.051 26.6466 286.119 27.8888 286.863C29.131 287.607 30.5518 288 31.9999 288H47.9999V472C47.9999 474.122 48.8427 476.157 50.343 477.657C51.8433 479.157 53.8781 480 55.9999 480H488C490.122 480 492.156 479.157 493.657 477.657C495.157 476.157 496 474.122 496 472V40C496 37.8783 495.157 35.8434 493.657 34.3431C492.156 32.8429 490.122 32 488 32V32ZM78.9479 240H91.7189L102.385 256L91.7189 272H78.9479L86.6559 260.438C87.5321 259.124 87.9997 257.58 87.9997 256C87.9997 254.42 87.5321 252.876 86.6559 251.562L78.9479 240ZM116.281 264H128.226C130.02 296.62 142.897 327.651 164.726 351.957L142.07 374.613C119.699 350.246 104.698 320.035 98.8069 287.485C100.376 286.897 101.721 285.831 102.652 284.438L116.281 264ZM277.657 261.657C278.774 260.54 279.536 259.117 279.845 257.567C280.155 256.018 279.999 254.412 279.396 252.951C278.794 251.49 277.773 250.24 276.461 249.359C275.15 248.478 273.607 248.005 272.027 248H241.013C242.685 241.492 246.362 235.675 251.522 231.372C256.683 227.069 263.066 224.497 269.768 224.022C276.471 223.547 283.153 225.191 288.869 228.723C294.585 232.255 299.046 237.495 301.62 243.702C304.194 249.908 304.751 256.767 303.211 263.308C301.672 269.849 298.115 275.739 293.043 280.147C287.971 284.554 281.642 287.255 274.951 287.867C268.259 288.479 261.545 286.971 255.758 283.556L277.657 261.657ZM252.687 264L244.444 272.242C242.918 269.67 241.763 266.895 241.013 264H252.687ZM244.212 295.1C252.701 301.128 262.921 304.231 273.328 303.941C283.736 303.651 293.767 299.983 301.907 293.491C310.047 286.999 315.854 278.035 318.453 267.953C321.051 257.871 320.299 247.217 316.311 237.599C312.322 227.982 305.313 219.923 296.342 214.638C287.371 209.354 276.925 207.131 266.579 208.306C256.234 209.48 246.552 213.987 238.993 221.148C231.435 228.308 226.41 237.733 224.679 248H192.4C194.163 230.242 201.807 213.582 214.118 200.664C226.429 187.745 242.702 179.309 260.355 176.693C278.007 174.077 296.028 177.432 311.556 186.225C327.084 195.018 339.231 208.746 346.068 225.229C352.906 241.713 354.042 260.007 349.297 277.21C344.551 294.413 334.196 309.538 319.875 320.184C305.554 330.831 288.087 336.39 270.247 335.979C252.407 335.567 235.215 329.209 221.4 317.913L244.212 295.1ZM224.679 264C225.884 271.134 228.695 277.9 232.899 283.788L210.087 306.6C200.118 294.456 193.964 279.634 192.4 264H224.679ZM210.045 329.268C226.48 343.15 247.103 351.106 268.603 351.86C290.103 352.613 311.232 346.12 328.599 333.423C345.966 320.726 358.562 302.562 364.366 281.846C370.169 261.131 368.843 239.066 360.601 219.194C352.358 199.323 337.677 182.797 318.915 172.271C300.153 161.745 278.398 157.829 257.143 161.152C235.888 164.475 216.366 174.844 201.712 190.594C187.057 206.343 178.12 226.561 176.336 248H144.257C148.4 181.134 204.108 128 272 128C292.718 127.984 313.131 132.997 331.485 142.609C349.838 152.222 365.584 166.145 377.37 183.185C389.156 200.224 396.63 219.87 399.15 240.434C401.669 260.999 399.159 281.868 391.835 301.248C384.511 320.629 372.592 337.942 357.101 351.701C341.611 365.459 323.012 375.252 302.903 380.238C282.793 385.224 261.774 385.254 241.651 380.326C221.527 375.397 202.9 365.657 187.371 351.943L210.045 329.268ZM176.336 264C177.988 283.882 185.821 302.749 198.736 317.955L176.061 340.629C157.211 319.347 146.017 292.375 144.257 264H176.336ZM176.043 363.27C202.395 386.944 236.576 400.028 272 400C351.4 400 416 335.4 416 256C416 176.6 351.4 112 272 112C195.283 112 132.392 172.305 128.226 248H116.281L102.656 227.562C101.725 226.169 100.38 225.103 98.8109 224.515C113.792 141.544 186.767 80 272 80C369.047 80 448 158.953 448 256C448 353.047 369.047 432 272 432C228.099 431.98 185.794 415.539 153.4 385.91L176.043 363.27ZM54.6559 251.562L46.9479 240H59.7189L70.3849 256L59.7189 272H46.9479L54.6559 260.438C55.5321 259.124 55.9997 257.58 55.9997 256C55.9997 254.42 55.5321 252.876 54.6559 251.562ZM480 464H63.9999V288H82.6679C90.2362 332.739 113.403 373.353 148.06 402.641C182.717 431.929 226.625 447.998 272 448C377.869 448 464 361.869 464 256C464 150.131 377.869 64 272 64C226.625 64.0019 182.717 80.0712 148.06 109.359C113.403 138.647 90.2362 179.261 82.6679 224H63.9999V48H480V464Z" stroke="#b91c1c" fill="#b91c1c"/>
<path d="M90 84C95.5228 84 100 79.5228 100 74C100 68.4772 95.5228 64 90 64C84.4772 64 80 68.4772 80 74C80 79.5228 84.4772 84 90 84Z" stroke="#b91c1c" fill="#b91c1c"/>
<path d="M454 84C459.523 84 464 79.5228 464 74C464 68.4772 459.523 64 454 64C448.477 64 444 68.4772 444 74C444 79.5228 448.477 84 454 84Z" stroke="#b91c1c" fill="#b91c1c"/>
<path d="M90 448C95.5228 448 100 443.523 100 438C100 432.477 95.5228 428 90 428C84.4772 428 80 432.477 80 438C80 443.523 84.4772 448 90 448Z" stroke="#b91c1c" fill="#b91c1c"/>
<path d="M454 448C459.523 448 464 443.523 464 438C464 432.477 459.523 428 454 428C448.477 428 444 432.477 444 438C444 443.523 448.477 448 454 448Z" stroke="#b91c1c" fill="#b91c1c"/>
</svg>
