<?xml version="1.0" encoding="UTF-8" standalone="no"?> <svg width="64" height="64" viewBox="0 0 64 64" fill="none" xmlns="http://www.w3.org/2000/svg">
<path d="M32 28C31.2089 28 30.4355 28.2346 29.7777 28.6741C29.1199 29.1136 28.6072 29.7384 28.3045 30.4693C28.0017 31.2002 27.9225 32.0044 28.0769 32.7804C28.2312 33.5563 28.6122 34.269 29.1716 34.8284C29.731 35.3878 30.4437 35.7688 31.2196 35.9231C31.9956 36.0775 32.7998 35.9983 33.5307 35.6955C34.2616 35.3928 34.8864 34.8801 35.3259 34.2223C35.7654 33.5645 36 32.7911 36 32C36 30.9391 35.5786 29.9217 34.8284 29.1716C34.0783 28.4214 33.0609 28 32 28V28ZM32 34C31.6044 34 31.2178 33.8827 30.8889 33.6629C30.56 33.4432 30.3036 33.1308 30.1522 32.7654C30.0009 32.3999 29.9613 31.9978 30.0384 31.6098C30.1156 31.2219 30.3061 30.8655 30.5858 30.5858C30.8655 30.3061 31.2219 30.1156 31.6098 30.0384C31.9978 29.9613 32.3999 30.0009 32.7654 30.1522C33.1308 30.3036 33.4432 30.56 33.6629 30.8889C33.8827 31.2178 34 31.6044 34 32C34 32.5304 33.7893 33.0391 33.4142 33.4142C33.0391 33.7893 32.5304 34 32 34Z" fill="black"/>
<path d="M32 26.5398C32.5994 26.5394 33.1946 26.6408 33.76 26.8398C33.9846 26.8638 34.2107 26.8111 34.4015 26.6902C34.5923 26.5693 34.7366 26.3874 34.8108 26.174C34.885 25.9607 34.8848 25.7285 34.8102 25.5153C34.7356 25.3021 34.591 25.1204 34.4 24.9998C33.4881 24.6752 32.5211 24.534 31.5545 24.5841C30.5878 24.6342 29.6406 24.8748 28.7672 25.292C27.8938 25.7092 27.1114 26.2948 26.4649 27.0152C25.8184 27.7356 25.3206 28.5765 25 29.4898L26.89 30.1498C27.2565 29.0888 27.9468 28.1696 28.8636 27.5219C29.7805 26.8742 30.8775 26.5307 32 26.5398V26.5398Z" fill="black"/>
<path d="M26.2995 32.9996C26.4886 32.9407 26.656 32.8269 26.7804 32.6727C26.9047 32.5185 26.9805 32.3308 26.998 32.1335C27.0156 31.9362 26.9741 31.7381 26.8789 31.5644C26.7837 31.3906 26.6391 31.2491 26.4633 31.1577C26.2875 31.0663 26.0886 31.0292 25.8917 31.051C25.6948 31.0729 25.5088 31.1527 25.3574 31.2804C25.2059 31.4081 25.0958 31.5779 25.041 31.7682C24.9862 31.9586 24.9891 32.1609 25.0495 32.3496C25.1299 32.601 25.3064 32.8104 25.5406 32.9321C25.7748 33.0539 26.0475 33.0782 26.2995 32.9996Z" fill="black"/>
<path d="M32 43C34.1756 43 36.3023 42.3549 38.1113 41.1462C39.9202 39.9375 41.3301 38.2195 42.1627 36.2095C42.9952 34.1995 43.2131 31.9878 42.7886 29.854C42.3642 27.7202 41.3166 25.7602 39.7782 24.2218C38.2398 22.6835 36.2798 21.6358 34.146 21.2114C32.0122 20.7869 29.8005 21.0048 27.7905 21.8373C25.7805 22.6699 24.0625 24.0798 22.8538 25.8887C21.6451 27.6977 21 29.8244 21 32C21 34.9174 22.1589 37.7153 24.2218 39.7782C26.2847 41.8411 29.0826 43 32 43ZM32 23C33.78 23 35.5201 23.5278 37.0001 24.5168C38.4802 25.5057 39.6337 26.9113 40.3149 28.5559C40.9961 30.2004 41.1743 32.01 40.8271 33.7558C40.4798 35.5016 39.6226 37.1053 38.364 38.364C37.1053 39.6226 35.5016 40.4798 33.7558 40.8271C32.01 41.1743 30.2004 40.9961 28.5558 40.3149C26.9113 39.6337 25.5057 38.4802 24.5168 37.0001C23.5278 35.5201 23 33.78 23 32C23 29.6131 23.9482 27.3239 25.636 25.636C27.3239 23.9482 29.6131 23 32 23V23Z" fill="black"/>
<path d="M3.78906 32C3.78935 32.401 3.87004 32.7979 4.02634 33.1672C4.18264 33.5364 4.41139 33.8706 4.69906 34.15C8.68906 38 19.3291 47 31.9991 47C44.6691 47 55.3091 38 59.2991 34.15C59.5863 33.8704 59.8147 33.5362 59.9706 33.1669C60.1265 32.7976 60.2068 32.4008 60.2068 32C60.2068 31.5992 60.1265 31.2024 59.9706 30.8331C59.8147 30.4638 59.5863 30.1296 59.2991 29.85C55.3091 26 44.6691 17 31.9991 17C19.3291 17 8.68906 26 4.69906 29.85C4.41139 30.1294 4.18264 30.4636 4.02634 30.8328C3.87004 31.2021 3.78935 31.599 3.78906 32V32ZM6.09906 31.29C9.90906 27.59 20.0591 19 31.9991 19C43.9391 19 54.0891 27.59 57.8991 31.29C57.9928 31.383 58.0672 31.4936 58.118 31.6154C58.1687 31.7373 58.1949 31.868 58.1949 32C58.1949 32.132 58.1687 32.2627 58.118 32.3846C58.0672 32.5064 57.9928 32.617 57.8991 32.71C54.0891 36.41 43.9391 45 31.9991 45C20.0591 45 9.90906 36.41 6.09906 32.71C6.00533 32.617 5.93094 32.5064 5.88017 32.3846C5.8294 32.2627 5.80326 32.132 5.80326 32C5.80326 31.868 5.8294 31.7373 5.88017 31.6154C5.93094 31.4936 6.00533 31.383 6.09906 31.29V31.29Z" fill="black"/>
<path d="M3 3H16V1H2C1.73478 1 1.48043 1.10536 1.29289 1.29289C1.10536 1.48043 1 1.73478 1 2V16H3V3Z" fill="black"/>
<path d="M62 1H48V3H61V16H63V2C63 1.73478 62.8946 1.48043 62.7071 1.29289C62.5196 1.10536 62.2652 1 62 1Z" fill="black"/>
<path d="M61 61H48V63H62C62.2652 63 62.5196 62.8946 62.7071 62.7071C62.8946 62.5196 63 62.2652 63 62V48H61V61Z" fill="black"/>
<path d="M2 63H16V61H3V48H1V62C1 62.2652 1.10536 62.5196 1.29289 62.7071C1.48043 62.8946 1.73478 63 2 63Z" fill="black"/>
<path d="M53 17V12C53 11.7348 52.8946 11.4804 52.7071 11.2929C52.5196 11.1054 52.2652 11 52 11H47V13H51V17H53Z" fill="black"/>
<path d="M11 12V17H13V13H17V11H12C11.7348 11 11.4804 11.1054 11.2929 11.2929C11.1054 11.4804 11 11.7348 11 12Z" fill="black"/>
<path d="M11 47V52C11 52.2652 11.1054 52.5196 11.2929 52.7071C11.4804 52.8946 11.7348 53 12 53H17V51H13V47H11Z" fill="black"/>
<path d="M47 51V53H52C52.2652 53 52.5196 52.8946 52.7071 52.7071C52.8946 52.5196 53 52.2652 53 52V47H51V51H47Z" fill="black"/>
<path d="M33 51H31V53H33V51Z" fill="black"/>
<path d="M37 51H35V53H37V51Z" fill="black"/>
<path d="M41 51H39V53H41V51Z" fill="black"/>
<path d="M25 51H23V53H25V51Z" fill="black"/>
<path d="M29 51H27V53H29V51Z" fill="black"/>
<path d="M33 11H31V13H33V11Z" fill="black"/>
<path d="M37 11H35V13H37V11Z" fill="black"/>
<path d="M41 11H39V13H41V11Z" fill="black"/>
<path d="M25 11H23V13H25V11Z" fill="black"/>
<path d="M29 11H27V13H29V11Z" fill="black"/>
</svg>
